# xmcd
#
# Track frame offsets: 
#        150
#        21062
#        32702
#        47202
#        61555
#        77167
#        91637
#        99067
#        110592
#        127880
#        133690
#        149320
#        162445
#
# Disc length: 2393 seconds
#
# Revision: 16
# Processed by: cddbd v1.5.2PL0 Copyright (c) Steve Scherf et al.
# Submitted via: ExactAudioCopyFreeDBPlugin 1.0
#
DISCID=9b09570d
DTITLE=久石譲 - 「風の谷のナウシカ」サウンドトラック - はるかな地へ…
DYEAR=2014
DGENRE=Soundtrack
TTITLE0=オープニング「風の谷のナウシカ」
TTITLE1=王蟲の暴走
TTITLE2=風の谷
TTITLE3=虫愛ずる姫
TTITLE4=クシャナの侵略
TTITLE5=戦闘
TTITLE6=王蟲との交流
TTITLE7=腐海にて
TTITLE8=ペジテの全滅
TTITLE9=メーヴェとコルベットの戦い
TTITLE10=蘇る巨神兵
TTITLE11=ナウシカ・レクイエム
TTITLE12=エンディング「鳥の人」
EXTD=NAUSICA・・・OF THE VALLEY OF THE WIND (SOUNDTRACK ALBUM]\n\nTokuma 
EXTD=Japan Communications\nTKCA-72717 YEAR: 2012
EXTT0=
EXTT1=
EXTT2=
EXTT3=
EXTT4=
EXTT5=
EXTT6=
EXTT7=
EXTT8=
EXTT9=
EXTT10=
EXTT11=
EXTT12=
PLAYORDER=
